<?xml version="1.0" encoding="utf-8"?>
<!-- Generator: Adobe Adobe Illustrator 29.2.0, SVG Export Plug-In . SVG Version: 6.00 Build 0)  -->
<svg version="1.1" id="Banner_x5F_GiftsPredict" xmlns="http://www.w3.org/2000/svg" xmlns:xlink="http://www.w3.org/1999/xlink"
	 x="0px" y="0px" width="1920px" height="1080px" viewBox="0 0 1920 1080" style="enable-background:new 0 0 1920 1080;"
	 xml:space="preserve">
<style type="text/css">
	.st0{opacity:0.25;fill:#AE58AD;}
	.st1{fill:#AE58AD;}
	.st2{opacity:0.5;fill:#AE58AD;}
</style>
<g>
	<path class="st0" d="M912.72,497.72H552.97c-1.13,0-2.04-0.91-2.04-2.04V135.92c0-1.13,0.91-2.04,2.04-2.04h359.76
		c1.13,0,2.04,0.91,2.04,2.04v359.76C914.77,496.8,913.85,497.72,912.72,497.72z"/>
	<path class="st1" d="M912.72,946.12H552.97c-1.13,0-2.04-0.91-2.04-2.04V584.33c0-1.13,0.91-2.04,2.04-2.04h359.76
		c1.13,0,2.04,0.91,2.04,2.04v359.76C914.77,945.21,913.85,946.12,912.72,946.12z"/>
	<path class="st2" d="M1367.03,946.12h-359.76c-1.13,0-2.04-0.91-2.04-2.04V584.33c0-1.13,0.91-2.04,2.04-2.04h359.76
		c1.13,0,2.04,0.91,2.04,2.04v359.76C1369.07,945.21,1368.16,946.12,1367.03,946.12z"/>
	<path class="st2" d="M1367.03,497.72h-359.76c-1.13,0-2.04-0.91-2.04-2.04V135.92c0-1.13,0.91-2.04,2.04-2.04h359.76
		c1.13,0,2.04,0.91,2.04,2.04v359.76C1369.07,496.8,1368.16,497.72,1367.03,497.72z"/>
</g>
</svg>
