<?xml version="1.0" encoding="utf-8"?>
<!-- Generator: Adobe Adobe Illustrator 29.2.0, SVG Export Plug-In . SVG Version: 6.00 Build 0)  -->
<svg version="1.1" id="Banner_x5F_GiftsPredict" xmlns="http://www.w3.org/2000/svg" xmlns:xlink="http://www.w3.org/1999/xlink"
	 x="0px" y="0px" width="1920px" height="1080px" viewBox="0 0 1920 1080" style="enable-background:new 0 0 1920 1080;"
	 xml:space="preserve">
<style type="text/css">
	.st0{fill:url(#SVGID_1_);}
	.st1{opacity:0.5;fill:url(#SVGID_00000040572588275815119460000006684049556124659076_);}
	.st2{opacity:0.5;fill:url(#SVGID_00000020371091977881866840000005823882956412376719_);}
	.st3{opacity:0.5;fill:#AD59A9;}
</style>
<g>
	<linearGradient id="SVGID_1_" gradientUnits="userSpaceOnUse" x1="717.7975" y1="973.0704" x2="717.7975" y2="585.0436">
		<stop  offset="0" style="stop-color:#600853"/>
		<stop  offset="1" style="stop-color:#382C75"/>
	</linearGradient>
	<path class="st0" d="M911.81,636.38v285.36c0,28.44-23.15,51.33-51.33,51.33H575.12c-28.18,0-51.34-22.9-51.34-51.33V636.38
		c0-28.18,23.15-51.33,51.34-51.33h285.36C888.66,585.04,911.81,608.19,911.81,636.38z"/>
	
		<linearGradient id="SVGID_00000142136187774234938050000009031404789759502265_" gradientUnits="userSpaceOnUse" x1="717.7975" y1="494.9564" x2="717.7975" y2="106.9296">
		<stop  offset="0" style="stop-color:#600853"/>
		<stop  offset="1" style="stop-color:#382C75"/>
	</linearGradient>
	<path style="opacity:0.5;fill:url(#SVGID_00000142136187774234938050000009031404789759502265_);" d="M911.81,158.26v285.36
		c0,28.44-23.15,51.33-51.33,51.33H575.12c-28.18,0-51.34-22.9-51.34-51.33V158.26c0-28.18,23.15-51.33,51.34-51.33h285.36
		C888.66,106.93,911.81,130.08,911.81,158.26z"/>
	
		<linearGradient id="SVGID_00000163045484328992009340000005958660225849421727_" gradientUnits="userSpaceOnUse" x1="1202.2024" y1="973.0704" x2="1202.2024" y2="585.0436">
		<stop  offset="0" style="stop-color:#600853"/>
		<stop  offset="1" style="stop-color:#382C75"/>
	</linearGradient>
	<path style="opacity:0.5;fill:url(#SVGID_00000163045484328992009340000005958660225849421727_);" d="M1396.22,636.38v285.36
		c0,28.44-23.15,51.33-51.33,51.33h-285.36c-28.18,0-51.34-22.9-51.34-51.33V636.38c0-28.18,23.15-51.33,51.34-51.33h285.36
		C1373.06,585.04,1396.22,608.19,1396.22,636.38z"/>
	<path class="st3" d="M1396.22,158.26v285.36c0,28.44-23.15,51.33-51.33,51.33h-285.36c-28.18,0-51.34-22.9-51.34-51.33V158.26
		c0-28.18,23.15-51.33,51.34-51.33h285.36C1373.06,106.93,1396.22,130.08,1396.22,158.26z"/>
</g>
</svg>
